<svg width="24" height="24" viewBox="0 0 24 24" fill="none" xmlns="http://www.w3.org/2000/svg">
<path d="M22.46 6.00024C21.69 6.35024 20.86 6.58024 20 6.69024C20.88 6.16024 21.56 5.32024 21.88 4.31024C21.05 4.81024 20.13 5.16024 19.16 5.36024C18.37 4.50024 17.26 4.00024 16 4.00024C13.65 4.00024 11.73 5.92024 11.73 8.29024C11.73 8.63024 11.77 8.96024 11.84 9.27024C8.28004 9.09024 5.11004 7.38024 3.00004 4.79024C2.63004 5.42024 2.42004 6.16024 2.42004 6.94024C2.42004 8.43024 3.17004 9.75024 4.33004 10.5002C3.62004 10.5002 2.96004 10.3002 2.38004 10.0002V10.0302C2.38004 12.1102 3.86004 13.8502 5.82004 14.2402C5.19088 14.4132 4.53008 14.4371 3.89004 14.3102C4.16165 15.1627 4.69358 15.9087 5.41106 16.4432C6.12854 16.9777 6.99549 17.2739 7.89004 17.2902C6.37371 18.4908 4.49405 19.1396 2.56004 19.1302C2.22004 19.1302 1.88004 19.1102 1.54004 19.0702C3.44004 20.2902 5.70004 21.0002 8.12004 21.0002C16 21.0002 20.33 14.4602 20.33 8.79024C20.33 8.60024 20.33 8.42024 20.32 8.23024C21.16 7.63024 21.88 6.87024 22.46 6.00024Z" fill="white"/>
</svg>
