<svg width="42" height="42" viewBox="0 0 42 42" fill="none" xmlns="http://www.w3.org/2000/svg">
<path fill-rule="evenodd" clip-rule="evenodd" d="M20.9618 4.84938C19.7343 4.82721 18.5144 5.04733 17.372 5.49715C16.2296 5.94697 15.1871 6.61766 14.3042 7.47083C13.4213 8.32399 12.7153 9.3429 12.2267 10.4692C11.738 11.5955 11.4762 12.8072 11.4564 14.0348V26.8732C11.4564 27.652 11.147 28.3989 10.5963 28.9496C10.0456 29.5003 9.29867 29.8097 8.51985 29.8097H4.84922C3.681 29.8097 2.56064 29.3456 1.73458 28.5196C0.90853 27.6935 0.444458 26.5731 0.444458 25.4049L0.444458 19.5319C0.444458 18.3637 0.90853 17.2433 1.73458 16.4173C2.56064 15.5912 3.681 15.1272 4.84922 15.1272H7.0516V13.9819C7.07839 12.1771 7.46046 10.3953 8.17597 8.73815C8.89148 7.08103 9.92643 5.58109 11.2217 4.324C12.517 3.0669 14.0472 2.07728 15.725 1.41165C17.4028 0.746018 19.1952 0.417418 21 0.444614C22.8048 0.417418 24.5973 0.746018 26.2751 1.41165C27.9528 2.07728 29.4831 3.0669 30.7783 4.324C32.0736 5.58109 33.1085 7.08103 33.8241 8.73815C34.5396 10.3953 34.9216 12.1771 34.9484 13.9819V15.1272H37.1508C38.319 15.1272 39.4394 15.5912 40.2654 16.4173C41.0915 17.2433 41.5556 18.3637 41.5556 19.5319V25.4049C41.5556 26.5731 41.0915 27.6935 40.2654 28.5196C39.4394 29.3456 38.319 29.8097 37.1508 29.8097H34.9484V31.2779C34.9488 33.2623 34.2185 35.1774 32.897 36.6576C31.5754 38.1379 29.7551 39.0797 27.7833 39.3034C27.4004 39.9871 26.8421 40.5562 26.1659 40.9521C25.4897 41.348 24.7201 41.5564 23.9365 41.5557H19.5318C18.3635 41.5557 17.2432 41.0917 16.4171 40.2656C15.5911 39.4396 15.127 38.3192 15.127 37.151C15.127 35.9827 15.5911 34.8624 16.4171 34.0363C17.2432 33.2103 18.3635 32.7462 19.5318 32.7462H23.9365C25.5281 32.7462 26.9229 33.589 27.6953 34.8546C28.5046 34.6686 29.227 34.2136 29.7444 33.564C30.2617 32.9143 30.5435 32.1084 30.5437 31.2779V14.0318C30.5235 12.7979 30.259 11.5802 29.7654 10.4492C29.2718 9.31809 28.5588 8.29609 27.6678 7.44222C26.7768 6.58836 25.7254 5.91957 24.5744 5.47452C23.4233 5.02948 22.1955 4.817 20.9618 4.84938Z" fill="white"/>
</svg>
